 http://img51.imageshack.us/img51/6579/attacktheblock2011.jpg

Country.......: United Kingdom
Genre.........: Sci-Fi, Action, Comedy
Date release..: 13.05.2011 [World]
Director......: Joe Cornish
Writers.......: Joe Cornish
Duration......: 84 min.
More..........: http://www.imdb.com/title/tt1478964
Trailer.......: http://www.imdb.com/video/imdb/vi3155205401
Trailer.......:

Pilot :
The main characters are members of a gang of teenagers from South London who are trying to protect the tower in which they live, from aliens.

Cats :
Nick Frost   	 ...  	Ron
Jodie Whittaker 	... 	Sam
Luke Treadaway 	... 	Brewis
Terry Notary 	... 	The Creature
John Boyega 	... 	Moses
Joey Ansah 	... 	Policeman 1
Alex Esmail 	... 	Pest
Chris Wilson 	... 	Arresting Police Officer
Flaminia Cinque 	... 	Italian Woman
Lee Nicholas Harris 	... 	Police Officer swat
Jumayn Hunter 	... 	Hi Hatz
Leeon Jones 	... 	Jerome
Paige Meade 	... 	Dimples
Adam Leese 	... 	Policeman 2
Maggie McCarthy 	... 	Margaret

Data Technical :
!!! SAMPLE !!!
Audio.....: English
Subtitles.: English .srt
Format                           : AVI
Format/Info                      : Audio Video Interleave
File size                        : 701 MiB
Duration                         : 1h 24mn
Overall bit rate                 : 1 163 Kbps
Video
ID                               : 0
Format                           : MPEG-4 Visual
Format profile                   : Advanced Simple@L5
Format settings, BVOP            : Yes
Format settings, QPel            : No
Format settings, GMC             : No warppoints
Format settings, Matrix          : Default (H.263)
Codec ID                         : XVID
Codec ID/Hint                    : XviD
Duration                         : 1h 24mn
Bit rate                         : 1 023 Kbps
Width                            : 640 pixels
Height                           : 256 pixels
Display aspect ratio             : 2.500
Frame rate                       : 25.000 fps
Color space                      : YUV
Chroma subsampling               : 4:2:0
Bit depth                        : 8 bits
Scan type                        : Progressive
Bits/(Pixel*Frame)               : 0.250
Stream size                      : 616 MiB (88%)
Writing library                  : XviD 1.2.1 (UTC 2008-12-04)
Audio
ID                               : 1
Format                           : MPEG Audio
Format version                   : Version 1
Format profile                   : Layer 3
Mode                             : Joint stereo
Codec ID                         : 55
Codec ID/Hint                    : MP3
Duration                         : 1h 24mn
Bit rate mode                    : Variable
Bit rate                         : 128 Kbps
Channel(s)                       : 2 channels
Sampling rate                    : 48.0 KHz
Stream size                      : 76.7 MiB (11%)
Alignment                        : Aligned on interleaves
Interleave, duration             : 24 ms (0.60 video frame)
Interleave, preload duration     : 66 ms
Title                            : vob T80 3_2ch 448Kbps DELAY 0ms
Writing library                  : LAME3.90.
Encoding settings                : -m j -V 4 -q 2 -lowpass 17.6 --abr 128

Screen : 
http://img845.imageshack.us/img845/3961/attacktheblock2011s1.jpg 
http://img714.imageshack.us/img714/3785/attacktheblock2011s2.jpg 
http://img819.imageshack.us/img819/1176/attacktheblock2011s3.jpg 
http://img508.imageshack.us/img508/3941/attacktheblock2011s4.jpg 
http://img600.imageshack.us/img600/4837/attacktheblock2011s5.jpg